<?xml version="1.0" encoding="utf-8"?>
<!-- Generator: Adobe Illustrator 18.0.0, SVG Export Plug-In . SVG Version: 6.00 Build 0)  -->
<!DOCTYPE svg PUBLIC "-//W3C//DTD SVG 1.1//EN" "http://www.w3.org/Graphics/SVG/1.1/DTD/svg11.dtd">
<svg version="1.1" id="Layer_1" xmlns="http://www.w3.org/2000/svg" xmlns:xlink="http://www.w3.org/1999/xlink" x="0px" y="0px"
	 viewBox="0 0 1400 1000" enable-background="new 0 0 1400 1000" xml:space="preserve">
<g id="Receipt">
	<g>
		<path d="M609.1,90.9h-90.9v272.7h90.9V90.9z M790.9,90.9h-45.5v272.7h45.5V90.9z M700,90.9h-45.5v272.7H700V90.9z M972.7,90.9
			h-45.5v272.7h45.5V90.9z M472.7,90.9h-45.5v272.7h45.5V90.9z M881.8,90.9h-45.5v272.7h45.5V90.9z M881.8,727.3H427.3v45.5h454.5
			V727.3z M1040.9,0H359.1c-13.6,0-22.7,9.1-22.7,22.7v954.5c0,13.6,9.1,22.7,22.7,22.7c6.8,0,11.4-2.3,15.9-6.8l75-75l75,75
			c4.5,4.5,9.1,6.8,15.9,6.8c6.8,0,11.4-2.3,15.9-6.8l72.7-72.7l52.3,70.5l0,0c4.5,4.5,11.4,9.1,18.2,9.1s13.6-4.5,18.2-9.1l0,0
			l52.3-70.5l72.7,72.7c4.5,4.5,9.1,6.8,15.9,6.8c6.8,0,11.4-2.3,15.9-6.8l75-75l75,75c4.5,4.5,9.1,6.8,15.9,6.8
			c13.6,0,22.7-9.1,22.7-22.7V22.7C1063.6,9.1,1054.5,0,1040.9,0z M1018.2,922.7l-52.3-52.3c-4.5-4.5-9.1-6.8-15.9-6.8
			s-11.4,2.3-15.9,6.8l-75,75l-75-75c-4.5-4.5-9.1-6.8-15.9-6.8s-13.6,4.5-18.2,9.1l0,0l-50,65.9l-50-65.9l0,0
			c-4.5-4.5-11.4-9.1-18.2-9.1s-11.4,2.3-15.9,6.8l-75,75l-75-75c-4.5-4.5-9.1-6.8-15.9-6.8c-6.8,0-11.4,2.3-15.9,6.8l-52.3,52.3
			V45.5h636.4V922.7z M972.7,545.5H427.3v45.5h545.5V545.5z M972.7,636.4H427.3v45.5h545.5V636.4z M790.9,454.5H427.3V500h363.6
			V454.5z"/>
	</g>
</g>
</svg>
