<?xml version="1.0" encoding="utf-8"?>
<!-- Generator: Adobe Illustrator 18.0.0, SVG Export Plug-In . SVG Version: 6.00 Build 0)  -->
<!DOCTYPE svg PUBLIC "-//W3C//DTD SVG 1.1//EN" "http://www.w3.org/Graphics/SVG/1.1/DTD/svg11.dtd">
<svg version="1.1" id="Layer_1" xmlns="http://www.w3.org/2000/svg" xmlns:xlink="http://www.w3.org/1999/xlink" x="0px" y="0px"
	 viewBox="675.9 494.1 89.3 89.3" enable-background="new 675.9 494.1 89.3 89.3" xml:space="preserve">
<g id="Home_x40_2x.png">
	<g>
		<path d="M764.6,537.3L749,521.7v-21.5c0-1.2-0.8-2-2-2h-12.2c-1.2,0-2,0.8-2,2v5.3L722,494.7c-0.4-0.4-0.8-0.6-1.4-0.6
			c-0.6,0-1,0.2-1.4,0.6l-42.6,42.6c-0.4,0.4-0.6,0.8-0.6,1.4c0,1.2,0.8,2,2,2c0.6,0,1-0.2,1.4-0.6l8.7-8.7v49.9c0,1.2,0.8,2,2,2
			h20.3h20.3H751c1.2,0,2-0.8,2-2v-49.9l8.7,8.7c0.4,0.4,0.8,0.6,1.4,0.6c1.2,0,2-0.8,2-2C765.2,538.2,765,537.8,764.6,537.3z
			 M736.8,502.2h8.1v15.4l-8.1-8.1V502.2z M708.4,579.3h-16.2v-4.1h16.2V579.3z M728.7,579.3h-16.2v-32.5h16.2V579.3z M749,579.3
			h-16.2v-4.1H749V579.3z M749,571.2h-16.2v-26.4c0-1.2-0.8-2-2-2h-20.3c-1.2,0-2,0.8-2,2v26.4h-16.2v-43.8l28.4-28.4l28.4,28.4
			V571.2z M722.6,567.2c1.2,0,2-0.8,2-2s-0.8-2-2-2s-2,0.8-2,2S721.4,567.2,722.6,567.2z"/>
	</g>
</g>
</svg>
