<?xml version="1.0" encoding="utf-8"?>
<!-- Generator: Adobe Illustrator 18.0.0, SVG Export Plug-In . SVG Version: 6.00 Build 0)  -->
<!DOCTYPE svg PUBLIC "-//W3C//DTD SVG 1.1//EN" "http://www.w3.org/Graphics/SVG/1.1/DTD/svg11.dtd">
<svg version="1.1" id="Layer_1" xmlns="http://www.w3.org/2000/svg" xmlns:xlink="http://www.w3.org/1999/xlink" x="0px" y="0px"
	 viewBox="0 0 1400 1000" enable-background="new 0 0 1400 1000" xml:space="preserve">
<g id="Radar">
	<g>
		<path d="M700,0C422.7,0,200,222.7,200,500s222.7,500,500,500s500-222.7,500-500S977.3,0,700,0z M677.3,952.3
			c-231.8-11.4-418.2-197.7-431.8-429.5h93.2c6.8,20.5,25,38.6,47.7,43.2c29.5,136.4,145.5,240.9,288.6,250v136.4H677.3z
			 M677.3,772.7c-120.5-9.1-215.9-97.7-243.2-211.4c15.9-6.8,27.3-22.7,34.1-38.6h120.5c9.1,45.5,43.2,79.5,88.6,88.6V772.7z
			 M677.3,388.6c-45.5,9.1-79.5,43.2-88.6,88.6H468.2c-6.8-15.9-18.2-29.5-34.1-38.6c25-113.6,122.7-200,243.2-211.4V388.6z
			 M677.3,181.8c-143.2,9.1-259.1,113.6-288.6,250c-22.7,4.5-40.9,22.7-47.7,43.2h-95.5c13.6-229.5,200-415.9,431.8-427.3V181.8z
			 M722.7,47.7c231.8,11.4,418.2,197.7,431.8,429.5h-136.4c-4.5-56.8-22.7-106.8-52.3-152.3c4.5-9.1,6.8-18.2,6.8-29.5
			c0-38.6-29.5-68.2-68.2-68.2c-11.4,0-20.5,2.3-29.5,6.8c-45.5-29.5-95.5-47.7-152.3-50V47.7z M722.7,229.5
			c43.2,4.5,84.1,18.2,120.5,38.6c-4.5,9.1-6.8,18.2-6.8,27.3c0,38.6,29.5,68.2,68.2,68.2c9.1,0,18.2-2.3,27.3-6.8
			c22.7,36.4,36.4,75,38.6,120.5H809.1c-9.1-45.5-43.2-79.5-88.6-88.6V229.5H722.7z M722.7,611.4c45.5-9.1,79.5-43.2,88.6-88.6
			h161.4c-11.4,131.8-115.9,238.6-250,250V611.4z M722.7,952.3V815.9c156.8-11.4,284.1-136.4,295.5-293.2h136.4
			C1140.9,754.5,954.5,940.9,722.7,952.3z"/>
	</g>
</g>
</svg>
