<?xml version="1.0" encoding="utf-8"?>
<!-- Generator: Adobe Illustrator 18.0.0, SVG Export Plug-In . SVG Version: 6.00 Build 0)  -->
<!DOCTYPE svg PUBLIC "-//W3C//DTD SVG 1.1//EN" "http://www.w3.org/Graphics/SVG/1.1/DTD/svg11.dtd">
<svg version="1.1" id="Layer_1" xmlns="http://www.w3.org/2000/svg" xmlns:xlink="http://www.w3.org/1999/xlink" x="0px" y="0px"
	 viewBox="0 0 44 44" enable-background="new 0 0 44 44" xml:space="preserve">
<g id="Settings_1_x40_2x.png">
	<g>
		<path d="M22,12c-5.5,0-10,4.5-10,10c0,5.5,4.5,10,10,10c5.5,0,10-4.5,10-10C32,16.5,27.5,12,22,12z M22,30c-4.4,0-8-3.6-8-8
			c0-4.4,3.6-8,8-8s8,3.6,8,8C30,26.4,26.4,30,22,30z M42.5,17.6l-2.1-0.5c-0.4-1.6-1.1-3.2-1.9-4.6l1.1-1.9c0.3-0.7,0.6-1.5,0-2.1
			l-4.1-4.1C35.2,4.1,34.9,4,34.6,4c-0.4,0-0.8,0.2-1.2,0.4l-1.9,1.1c-1.4-0.8-3-1.5-4.6-1.9l-0.5-2.1C26.2,0.7,25.7,0,24.9,0h-5.9
			c-0.8,0-1.3,0.7-1.5,1.5l-0.5,2.1c-1.6,0.4-3.2,1.1-4.6,1.9l-1.9-1.1C10.2,4.2,9.8,4,9.4,4C9.1,4,8.8,4.1,8.5,4.4L4.4,8.5
			c-0.6,0.6-0.3,1.4,0,2.1l1.1,1.9c-0.8,1.4-1.5,3-1.9,4.6l-2.1,0.5C0.7,17.8,0,18.3,0,19.1v5.9c0,0.8,0.7,1.2,1.5,1.5l2.1,0.5
			c0.4,1.6,1.1,3.2,1.9,4.6l-1.1,1.9c-0.4,0.6-0.6,1.5,0,2.1l4.1,4.1C8.8,39.9,9.1,40,9.4,40c0.4,0,0.8-0.2,1.2-0.3l1.9-1.1
			c1.4,0.8,3,1.5,4.6,1.9l0.5,2.1c0.2,0.7,0.7,1.5,1.5,1.5h5.9c0.8,0,1.2-0.7,1.5-1.5l0.5-2.1c1.6-0.4,3.2-1.1,4.6-1.9l1.9,1.1
			c0.4,0.2,0.8,0.3,1.2,0.3c0.3,0,0.6-0.1,0.9-0.3l4.1-4.1c0.6-0.6,0.4-1.4,0-2.1l-1.1-1.9c0.8-1.4,1.5-3,1.9-4.6l2.1-0.5
			c0.7-0.2,1.5-0.7,1.5-1.5v-5.9C44,18.3,43.3,17.8,42.5,17.6z M42,24.5C42,24.5,42,24.5,42,24.5L39.9,25c-0.7,0.2-1.3,0.7-1.4,1.4
			c-0.4,1.4-1,2.8-1.7,4.1c-0.4,0.6-0.4,1.4,0,2l1.1,1.8l-3.5,3.5c0,0,0,0,0,0l-1.8-1.1c-0.3-0.2-0.7-0.3-1-0.3
			c-0.3,0-0.7,0.1-1,0.3c-1.3,0.7-2.7,1.3-4.1,1.7c-0.7,0.2-1.2,0.7-1.4,1.4L24.5,42c0,0,0,0,0,0h-4.9L19,39.9
			c-0.2-0.7-0.7-1.3-1.4-1.4c-1.4-0.4-2.8-1-4.1-1.7c-0.3-0.2-0.7-0.3-1-0.3c-0.4,0-0.7,0.1-1,0.3l-1.8,1.1c0,0,0,0,0,0l-3.5-3.5
			l1.1-1.8c0.4-0.6,0.4-1.4,0-2c-0.8-1.3-1.3-2.7-1.7-4.1c-0.2-0.7-0.7-1.2-1.4-1.4l-2-0.5c0,0,0,0,0,0v-4.9L4.1,19
			c0.7-0.2,1.3-0.7,1.4-1.4c0.4-1.4,1-2.8,1.7-4.1c0.4-0.6,0.4-1.4,0-2L6.1,9.6c0,0,0,0,0,0l3.5-3.5l1.8,1.1c0.3,0.2,0.7,0.3,1,0.3
			c0.3,0,0.7-0.1,1-0.3c1.3-0.7,2.7-1.3,4.1-1.7c0.7-0.2,1.2-0.7,1.4-1.4L19.5,2h4.9c0,0,0,0,0,0L25,4.1c0.2,0.7,0.7,1.3,1.4,1.4
			c1.4,0.4,2.8,1,4.1,1.7c0.3,0.2,0.7,0.3,1,0.3c0.4,0,0.7-0.1,1-0.3l1.8-1.1l3.5,3.5c0,0,0,0,0,0l-1.1,1.8c-0.4,0.6-0.4,1.4,0,2
			c0.7,1.3,1.3,2.7,1.7,4.1c0.2,0.7,0.7,1.2,1.4,1.4l2.1,0.5V24.5z"/>
	</g>
</g>
</svg>
